<?xml version="1.0" encoding="UTF-8"?>
<!DOCTYPE svg PUBLIC "-//W3C//DTD SVG 1.1//EN" "http://www.w3.org/Graphics/SVG/1.1/DTD/svg11.dtd">
<!-- Creator: CorelDRAW X7 -->
<svg xmlns="http://www.w3.org/2000/svg" xml:space="preserve" width="180px" height="80px" version="1.1" style="shape-rendering:geometricPrecision; text-rendering:geometricPrecision; image-rendering:optimizeQuality; fill-rule:evenodd; clip-rule:evenodd"
viewBox="0 0 180 80"
 xmlns:xlink="http://www.w3.org/1999/xlink">
 <defs>
  <style type="text/css">
   <![CDATA[
    .fil0 {fill:white;fill-rule:nonzero}
   ]]>
  </style>
 </defs>
 <g id="Warstwa_x0020_1">
  <metadata id="CorelCorpID_0Corel-Layer"/>
  <path class="fil0" d="M20 23c0,0 1,1 1,1l0 4c0,1 -1,1 -1,1l-3 0 0 27c0,0 -1,1 -1,1l-4 0c0,0 -1,0 -1,-1 0,0 0,0 0,0l0 -27 -3 0c-1,0 -1,0 -1,-1l0 -4c0,0 0,-1 1,-1l12 0z"/>
  <path id="1" class="fil0" d="M35 51c0,0 1,0 1,1l0 4c0,0 -1,1 -1,1l-10 0c-1,0 -1,-1 -1,-1l0 -32c0,0 0,-1 1,-1l10 0c0,0 1,1 1,1l0 4c0,1 -1,1 -1,1l-5 0 0 7 4 0c1,0 1,0 1,0l0 5c0,0 0,0 -1,0l-4 0 0 10 5 0z"/>
  <path id="2" class="fil0" d="M54 56c1,0 0,1 0,1l-4 0c-1,0 -1,0 -1,-1 0,0 0,0 0,0l-4 -12 0 12c0,1 0,1 0,1l-5 0c0,0 0,-1 0,-1l0 -32c0,0 0,-1 0,-1l8 0c0,0 1,0 2,1 1,0 1,1 2,1 0,1 1,1 1,2 0,1 1,2 1,2l0 8c0,1 -1,2 -1,3 -1,1 -2,2 -3,2l4 14zm-9 -18l2 0c0,0 0,0 1,0 0,-1 0,-1 0,-1l0 -7c0,-1 0,-1 0,-1 -1,0 -1,-1 -1,-1l-2 0 0 10z"/>
  <path id="3" class="fil0" d="M76 23c0,0 0,1 0,1l0 32c0,0 0,1 0,1l-5 0c0,0 -1,-1 -1,-1l0 -15 -3 12c0,0 0,0 0,0 0,0 0,0 0,0l-3 -12 0 15c0,0 -1,1 -1,1l-5 0c0,0 0,-1 0,-1l0 -32c0,0 0,-1 0,-1l4 0c1,0 1,0 1,1 0,0 0,0 0,0l4 17 4 -17c0,0 0,0 0,0 0,-1 0,-1 1,-1l4 0z"/>
  <path id="4" class="fil0" d="M86 56c0,0 0,1 -1,1l-4 0c0,0 0,-1 0,-1l0 -32c0,0 0,-1 0,-1l4 0c1,0 1,1 1,1l0 32z"/>
  <path id="5" class="fil0" d="M105 23c0,0 1,1 1,1l0 32c0,0 -1,1 -1,1l-3 0c0,0 0,0 -1,-1 0,0 0,0 0,0l-5 -16 0 16c0,0 0,1 -1,1l-4 0c0,0 -1,-1 -1,-1l0 -32c0,0 1,-1 1,-1l3 0c0,0 1,0 1,1 0,0 0,0 0,0l5 15 0 -15c0,0 0,-1 1,-1l4 0z"/>
  <path id="6" class="fil0" d="M124 56c0,0 0,1 -1,1l-4 0c-1,0 -1,-1 -1,-1l0 -5 -3 0 -1 5c0,0 0,1 0,1l-5 0c0,0 0,-1 0,-1l3 -32c0,0 1,-1 1,-1l6 0c1,0 1,1 1,1l4 32zm-7 -10l-1 -13 0 0 -1 13 2 0z"/>
  <path id="7" class="fil0" d="M137 23c1,0 1,1 1,1l0 4c0,1 0,1 -1,1l-3 0 0 27c0,0 0,1 -1,1l-4 0c0,0 0,0 0,-1 0,0 -1,0 -1,0l0 -27 -3 0c0,0 -1,0 -1,-1l0 -4c0,0 1,-1 1,-1l12 0z"/>
  <path id="8" class="fil0" d="M154 51c0,1 0,2 0,2 -1,1 -1,2 -1,2 -1,1 -2,1 -2,2 -1,0 -2,0 -3,0l-2 0c0,0 -1,0 -2,0 -1,-1 -1,-1 -2,-2 0,0 -1,-1 -1,-2 0,0 -1,-1 -1,-2l0 -22c0,-1 1,-2 1,-2 0,-1 1,-2 1,-2 1,-1 1,-1 2,-2 1,0 2,0 2,0l2 0c1,0 2,0 3,0 0,1 1,1 2,2 0,0 0,1 1,2 0,0 0,1 0,2l0 22zm-5 -22c0,0 0,0 -1,-1 0,0 0,0 0,0l-1 0c0,0 0,0 -1,0 0,1 0,1 0,1l0 22c0,0 0,0 0,1 1,0 1,0 1,0l1 0c0,0 0,0 0,0 1,-1 1,-1 1,-1l0 -22z"/>
  <path id="9" class="fil0" d="M173 56c0,0 0,1 -1,1l-4 0c0,0 0,0 -1,-1 0,0 0,0 0,0l-3 -12 0 12c0,1 -1,1 -1,1l-4 0c-1,0 -1,-1 -1,-1l0 -32c0,0 0,-1 1,-1l7 0c1,0 1,0 2,1 1,0 2,1 2,1 1,1 1,1 1,2 1,1 1,2 1,2l0 8c0,1 0,2 -1,3 -1,1 -1,2 -2,2l4 14zm-9 -18l1 0c0,0 1,0 1,0 0,-1 0,-1 0,-1l0 -7c0,-1 0,-1 0,-1 0,0 -1,-1 -1,-1l-1 0 0 10z"/>
 </g>
</svg>
