<?xml version="1.0" encoding="UTF-8"?>
<!DOCTYPE svg PUBLIC "-//W3C//DTD SVG 1.1//EN" "http://www.w3.org/Graphics/SVG/1.1/DTD/svg11.dtd">
<!-- Creator: CorelDRAW X7 -->
<svg xmlns="http://www.w3.org/2000/svg" xml:space="preserve" width="200px" height="80px" version="1.1" style="shape-rendering:geometricPrecision; text-rendering:geometricPrecision; image-rendering:optimizeQuality; fill-rule:evenodd; clip-rule:evenodd"
viewBox="0 0 200 80"
 xmlns:xlink="http://www.w3.org/1999/xlink">
 <defs>
  <style type="text/css">
   <![CDATA[
    .fil0 {fill:url(#id0)}
   ]]>
  </style>
  <linearGradient id="id0" gradientUnits="userSpaceOnUse" x1="84.3302" y1="90.2476" x2="126.98" y2="-10.2461">
   <stop offset="0" style="stop-opacity:1; stop-color:#2C3E50"/>
   <stop offset="1" style="stop-opacity:1; stop-color:white"/>
  </linearGradient>
 </defs>
 <g id="Warstwa_x0020_1">
  <metadata id="CorelCorpID_0Corel-Layer"/>
  <path class="fil0" d="M87 57l0 -25 -5 0 0 25 5 0zm-3 -34c-1,0 -2,1 -2,3 0,1 1,2 2,2 2,0 3,-1 3,-2 0,-2 -1,-3 -3,-3zm11 5l0 4 -4 0 0 4 4 0 0 13c0,3 0,5 2,6 1,1 2,2 4,2 2,0 3,0 4,0l0 -4c-1,0 -1,0 -2,0 -3,0 -4,-1 -4,-4l0 -13 7 0 0 -4 -7 0 0 -5 -4 1zm12 31l0 2 19 0 0 -2 -19 0zm34 -6c-1,1 -2,1 -4,1 -4,0 -7,-2 -7,-6 0,-4 3,-7 7,-7 2,0 3,0 4,1l0 -3c-1,0 -2,-1 -4,-1 -6,0 -10,4 -10,10 0,5 4,9 9,9 2,0 4,-1 5,-1l0 -3zm17 -8c0,-3 -1,-7 -7,-7 -2,0 -5,1 -6,2l1 2c1,-1 3,-2 4,-2 4,0 5,3 5,5l0 0c-7,0 -11,2 -11,7 0,2 2,5 5,5 3,0 5,-1 6,-3l0 0 0 3 3 0c0,-2 0,-3 0,-5l0 -7zm-3 5c0,1 0,1 0,2 -1,1 -3,3 -5,3 -2,0 -3,-1 -3,-4 0,-3 4,-4 8,-4l0 3zm6 -12l7 19 3 0 7 -19 -4 0 -3 11c-1,1 -1,3 -2,4l0 0c0,-1 -1,-3 -1,-4l-4 -11 -3 0zm34 10c0,0 0,-1 0,-1 0,-4 -1,-9 -7,-9 -6,0 -9,4 -9,10 0,5 4,9 9,9 3,0 5,-1 6,-1l0 -3c-2,1 -3,1 -5,1 -4,0 -7,-1 -7,-6l13 0zm-13 -2c1,-3 2,-6 5,-6 4,0 5,4 5,6l-10 0zm-103 -34l66 0 9 0 0 -1 0 0 0 0 0 0 1 1 -1 2 0 0 -1 0 -7 0 0 0 -67 0 -13 13 0 17 0 36 -2 0 0 -36 0 -17 0 0 0 -1 14 -14 1 0 0 0zm-7 26l0 42 -2 0 0 -42 0 -1 0 0 12 -12 1 2 -11 11zm-12 15l0 27 -2 0 0 -27 0 -14 0 -17 0 0 0 0 10 -11 8 -7 0 -4 3 0 0 4 0 0 -1 1 -8 8 -10 10 0 16 0 14zm-7 -14l0 0zm-4 -5l0 0zm3 -16l0 16c1,0 1,0 1,0 1,1 1,2 1,2 0,1 0,2 -1,3 0,0 -1,1 -2,1 -1,0 -2,-1 -2,-1 -1,-1 -1,-2 -1,-3 0,0 0,-1 1,-2 0,0 0,0 1,0l0 -16 0 0 0 -1 14 -14 0 -3 2 0 0 4 0 0 0 1 -14 13zm-6 2l0 15 0 9 7 7 0 1 0 0 0 2 0 7 0 19 -2 0 0 -19 0 -7 0 -1 -7 -8 0 0 -1 0 0 -10 0 -15 -8 -8 -5 0 0 0 0 0 -5 -3 -1 0 0 -1 0 -8 3 0 0 8 4 2 5 0 0 0 1 0 8 9 1 1 0 0zm-7 18l0 0zm-5 -4l0 0zm2 -1c1,0 2,0 3,1 0,0 1,1 1,2 0,1 -1,2 -1,2 -1,1 -1,1 -1,1l0 1 0 5 8 8 0 1 0 0 0 26 -2 0 0 -26 -8 -8 -1 0 0 -1 0 -5 0 -1c0,0 0,0 -1,-1 0,0 -1,-1 -1,-2 0,-1 1,-2 1,-2 1,-1 2,-1 2,-1zm3 23l0 24 -2 0 0 -24 -12 -11 0 -1 0 0 0 -19 -9 -8 0 -1 0 0 0 -9 0 -7 2 0 0 7 0 8 9 9 0 0 0 0 0 20 12 11 0 1 0 0zm125 -15l-10 -27 -1 -1m8 25l-8 -24 1 0 1 -2 9 26 -3 0z"/>
 </g>
</svg>
